<svg width="50" height="50" viewBox="0 0 50 50" fill="none" xmlns="http://www.w3.org/2000/svg">
<mask id="mask0" mask-type="alpha" maskUnits="userSpaceOnUse" x="17" y="17" width="16" height="16">
<rect x="17.5" y="32.5" width="15" height="15" transform="rotate(-90 17.5 32.5)" fill="#ACACAC" stroke="#ACACAC"/>
</mask>
<g mask="url(#mask0)">
<path d="M28.88 25.8699L28.8799 25.8699L22.8602 31.8896C22.8602 31.8896 22.8602 31.8896 22.8602 31.8896C22.3797 32.3701 21.6005 32.3702 21.1201 31.8896L28.88 25.8699ZM28.88 25.8699C29.1199 25.6298 29.2402 25.3146 29.2402 25C29.2402 24.6857 29.1202 24.3704 28.8802 24.1303L28.8801 24.1302M28.88 25.8699L28.8801 24.1302M28.8801 24.1302L22.8604 18.1106C22.3799 17.6299 21.6007 17.6298 21.1203 18.1106L28.8801 24.1302ZM21.12 30.1496C20.6397 30.6301 20.6396 31.4091 21.12 31.8895L21.1202 18.1107C20.6398 18.5911 20.6399 19.37 21.1202 19.8505L21.1203 19.8505L26.2699 25L21.1201 30.1496L21.12 30.1496Z" fill="#ACACAC" stroke="#ACACAC" stroke-width="0.5"/>
</g>
<circle cx="25" cy="25" r="24" transform="rotate(-180 25 25)" stroke="#ACACAC" stroke-width="2"/>
</svg>
