<svg width="50" height="50" viewBox="0 0 50 50" fill="none" xmlns="http://www.w3.org/2000/svg">
<mask id="mask0" mask-type="alpha" maskUnits="userSpaceOnUse" x="17" y="17" width="16" height="16">
<rect x="-0.5" y="-0.5" width="15" height="15" transform="matrix(4.37114e-08 -1 -1 -4.37114e-08 32 32)" fill="#ACACAC" stroke="#ACACAC"/>
</mask>
<g mask="url(#mask0)">
<path d="M21.12 25.8699L21.1201 25.8699L27.1398 31.8896C27.1398 31.8896 27.1398 31.8896 27.1398 31.8896C27.6203 32.3701 28.3995 32.3702 28.8799 31.8896L21.12 25.8699ZM21.12 25.8699C20.8801 25.6298 20.7598 25.3146 20.7598 25C20.7598 24.6857 20.8798 24.3704 21.1198 24.1303L21.1199 24.1302M21.12 25.8699L21.1199 24.1302M21.1199 24.1302L27.1396 18.1106C27.6201 17.6299 28.3993 17.6298 28.8797 18.1106L21.1199 24.1302ZM28.88 30.1496C29.3603 30.6301 29.3604 31.4091 28.88 31.8895L28.8798 18.1107C29.3602 18.5911 29.3601 19.37 28.8798 19.8505L28.8797 19.8505L23.7301 25L28.8799 30.1496L28.88 30.1496Z" fill="#ACACAC" stroke="#ACACAC" stroke-width="0.5"/>
</g>
<circle r="24" transform="matrix(1 8.74228e-08 8.74228e-08 -1 25 25)" stroke="#ACACAC" stroke-width="2"/>
</svg>
