<svg width="21" height="22" viewBox="0 0 21 22" fill="none" xmlns="http://www.w3.org/2000/svg">
<path d="M9.75119 9.92043C10.0399 9.64516 10.0399 9.19785 9.75119 8.92258C9.46249 8.64731 8.99335 8.64731 8.70465 8.92258L4.78917 12.6559C4.12156 13.2925 3.76068 14.1183 3.76068 15.0129C3.76068 15.9075 4.12156 16.7333 4.78917 17.3699C6.16049 18.6774 8.37987 18.6774 9.73314 17.3699L18.5745 8.93979C19.4948 8.06237 20 6.89247 20 5.65376C20 4.41505 19.4948 3.24516 18.5745 2.36774C16.6619 0.544086 13.5764 0.544086 11.6638 2.36774L2.84046 10.7806C1.64957 11.9161 1 13.4129 1 15.0129C1 16.6129 1.64957 18.1269 2.84046 19.2452C4.03134 20.3806 5.60114 21 7.2792 21C8.95727 21 10.5451 20.3806 11.7179 19.2452L15.6334 15.5118C15.9221 15.2366 15.9221 14.7892 15.6334 14.514C15.3447 14.2387 14.8756 14.2387 14.5869 14.514L10.6714 18.2473C9.76923 19.1075 8.5603 19.5892 7.2792 19.5892C5.9981 19.5892 4.78917 19.1075 3.88699 18.2473C2.98481 17.3871 2.47958 16.2344 2.47958 15.0129C2.47958 13.7914 2.98481 12.6387 3.88699 11.7785L12.7104 3.36559C13.3599 2.74624 14.208 2.41935 15.1102 2.41935C16.0123 2.41935 16.8784 2.76344 17.51 3.36559C18.1595 3.98495 18.5024 4.79355 18.5024 5.65376C18.5024 6.51398 18.1415 7.33979 17.51 7.94194L8.66857 16.372C7.89269 17.1118 6.61159 17.1118 5.81766 16.372C5.43875 16.0108 5.22222 15.529 5.22222 15.0129C5.22222 14.4968 5.43875 14.0151 5.81766 13.6538L9.75119 9.92043Z" fill="#4187C7" stroke="#4187C7" stroke-width="0.2"/>
</svg>
