<svg width="101" height="104" viewBox="0 0 101 104" fill="none" xmlns="http://www.w3.org/2000/svg">
<g opacity="0.4" filter="url(#filter0_f)">
<path d="M37.1676 42.5574L42.9632 41.0045C44.0296 40.7187 44.7493 40.4182 45.035 41.4846L44.5174 39.5527C44.2317 38.4863 43.2531 37.8209 42.1867 38.1067L34.4593 40.1772C32.5275 40.6949 31.5484 43.1572 32.8556 45.7833C32.8556 45.7833 37.012 54.3753 37.2846 54.9058C38.0054 56.3091 40.1236 57.2945 41.9753 56.7983L48.6962 54.9974C49.7635 54.7114 48.1678 53.1761 47.882 52.1098L47.3644 50.1779C47.6501 51.2443 47.1354 52.3098 46.069 52.5956L42.2053 53.6308C41.1389 53.9166 40.1651 53.0988 39.7558 52.2166C39.3466 51.3345 36.3279 45.5435 36.3279 45.5435C35.5101 43.778 36.1003 42.8434 37.1676 42.5574ZM62.1001 35.8767L56.3045 37.4296C55.2382 37.7154 53.4426 38.0888 53.7284 39.1552L53.2107 37.2234C52.925 36.157 54.4617 34.8176 55.5281 34.5319L63.2555 32.4613C65.1873 31.9437 67.2674 33.5863 67.4474 36.5145C67.4474 36.5145 68.3078 46.0352 68.3249 46.6321C68.3712 48.1726 67.1289 50.0584 65.2377 50.5652L58.3351 52.4147C57.2688 52.7004 56.8611 50.8468 56.5754 49.7804L56.0577 47.8485C56.3435 48.9149 58.344 49.3065 59.4104 49.0208L63.2741 47.9855C64.3405 47.6997 64.7759 46.5043 64.6883 45.536C64.6007 44.5677 64.3204 38.0429 64.3204 38.0429C64.1449 36.1053 63.1674 35.5907 62.1001 35.8767ZM56.7413 54.9123C54.9404 48.1914 54.1246 55.6135 54.1246 55.6135C54.1246 55.6135 49.4259 49.669 51.2268 56.3899C53.0277 63.1108 50.6361 66.9009 50.6361 66.9009L62.5093 63.7195C62.5083 63.7198 58.5421 61.6332 56.7413 54.9123Z" fill="url(#paint0_linear)"/>
<path d="M60.7581 37.869C62.5116 44.4131 58.9272 57.1933 54.8413 58.2881C50.7545 59.3832 41.2612 50.1071 39.5077 43.563C38.1632 38.545 38.8382 37.2005 40.77 36.6828C42.0972 36.3272 46.5827 35.0974 48.4904 34.5862L55.2517 32.7735C58.069 32.0176 59.2924 32.3989 60.7581 37.869Z" fill="url(#paint1_linear)"/>
<path d="M65.5462 63.941C65.8319 65.0074 66.2831 65.8141 65.2167 66.0999L49.7619 70.241C48.6945 70.527 48.4452 69.6662 48.1595 68.5998L47.9007 67.6339C47.6149 66.5675 48.5074 65.4007 49.5139 65.131L62.9567 61.5291C63.9632 61.2594 65.0016 61.9087 65.2873 62.9751L65.5462 63.941Z" fill="url(#paint2_linear)"/>
<path d="M67.8986 64.993C68.0953 65.7271 68.4138 66.2785 67.0451 66.6452L48.4511 71.6275C47.2031 71.9619 46.8449 71.4211 46.6482 70.687L46.5835 70.4456C46.3868 69.7115 46.9405 68.9264 47.6746 68.7297L66.2687 63.7474C67.0018 63.551 67.6372 64.0174 67.8339 64.7515L67.8986 64.993Z" fill="url(#paint3_linear)"/>
</g>
<path d="M32.1676 27.5574L37.9632 26.0045C39.0296 25.7187 39.7493 25.4182 40.035 26.4846L39.5174 24.5527C39.2317 23.4863 38.2531 22.8209 37.1867 23.1067L29.4593 25.1772C27.5275 25.6949 26.5484 28.1572 27.8556 30.7833C27.8556 30.7833 32.012 39.3753 32.2846 39.9058C33.0054 41.3091 35.1236 42.2945 36.9753 41.7983L43.6962 39.9974C44.7635 39.7114 43.1678 38.1761 42.882 37.1098L42.3644 35.1779C42.6501 36.2443 42.1354 37.3098 41.069 37.5956L37.2053 38.6308C36.1389 38.9166 35.1651 38.0988 34.7558 37.2166C34.3466 36.3345 31.3279 30.5435 31.3279 30.5435C30.5101 28.778 31.1003 27.8434 32.1676 27.5574ZM57.1001 20.8767L51.3045 22.4296C50.2382 22.7154 48.4426 23.0888 48.7284 24.1552L48.2107 22.2234C47.925 21.157 49.4617 19.8176 50.5281 19.5319L58.2555 17.4613C60.1873 16.9437 62.2674 18.5863 62.4474 21.5145C62.4474 21.5145 63.3078 31.0352 63.3249 31.6321C63.3712 33.1726 62.1289 35.0584 60.2377 35.5652L53.3351 37.4147C52.2688 37.7004 51.8611 35.8468 51.5754 34.7804L51.0577 32.8485C51.3435 33.9149 53.344 34.3065 54.4104 34.0208L58.2741 32.9855C59.3405 32.6997 59.7759 31.5043 59.6883 30.536C59.6007 29.5677 59.3204 23.0429 59.3204 23.0429C59.1449 21.1053 58.1674 20.5907 57.1001 20.8767ZM51.7413 39.9123C49.9404 33.1914 49.1246 40.6135 49.1246 40.6135C49.1246 40.6135 44.4259 34.669 46.2268 41.3899C48.0277 48.1108 45.6361 51.9009 45.6361 51.9009L57.5093 48.7195C57.5083 48.7198 53.5421 46.6332 51.7413 39.9123Z" fill="url(#paint4_linear)"/>
<path d="M55.7581 22.869C57.5116 29.4131 53.9272 42.1933 49.8413 43.2881C45.7545 44.3832 36.2612 35.1071 34.5077 28.563C33.1632 23.545 33.8382 22.2005 35.77 21.6828C37.0972 21.3272 41.5827 20.0974 43.4904 19.5862L50.2517 17.7735C53.069 17.0176 54.2924 17.3989 55.7581 22.869Z" fill="url(#paint5_linear)"/>
<path d="M60.5462 48.941C60.8319 50.0074 61.2831 50.8141 60.2167 51.0999L44.7619 55.241C43.6945 55.527 43.4452 54.6662 43.1595 53.5998L42.9007 52.6339C42.6149 51.5675 43.5074 50.4007 44.5139 50.131L57.9567 46.5291C58.9632 46.2594 60.0016 46.9087 60.2873 47.9751L60.5462 48.941Z" fill="url(#paint6_linear)"/>
<path d="M62.8986 49.993C63.0953 50.7271 63.4138 51.2785 62.0451 51.6452L43.4511 56.6275C42.2031 56.9619 41.8449 56.4211 41.6482 55.687L41.5835 55.4456C41.3868 54.7115 41.9405 53.9264 42.6746 53.7297L61.2687 48.7474C62.0018 48.551 62.6372 49.0174 62.8339 49.7515L62.8986 49.993Z" fill="url(#paint7_linear)"/>
<defs>
<filter id="filter0_f" x="0.259277" y="0.366699" width="100.067" height="103.362" filterUnits="userSpaceOnUse" color-interpolation-filters="sRGB">
<feFlood flood-opacity="0" result="BackgroundImageFix"/>
<feBlend mode="normal" in="SourceGraphic" in2="BackgroundImageFix" result="shape"/>
<feGaussianBlur stdDeviation="16" result="effect1_foregroundBlur"/>
</filter>
<linearGradient id="paint0_linear" x1="48.8576" y1="36.3192" x2="56.6221" y2="65.297" gradientUnits="userSpaceOnUse">
<stop stop-color="#FFBF36"/>
<stop offset="0.305404" stop-color="#FFCC65"/>
<stop offset="0.548133" stop-color="#FEB932"/>
<stop offset="0.767845" stop-color="#F8A449"/>
<stop offset="1" stop-color="#F58E2E"/>
</linearGradient>
<linearGradient id="paint1_linear" x1="48.4902" y1="34.5852" x2="54.8413" y2="58.2881" gradientUnits="userSpaceOnUse">
<stop stop-color="#FFCC4D"/>
<stop offset="0.699488" stop-color="#FFAD4D"/>
<stop offset="0.983791" stop-color="#EC9341"/>
</linearGradient>
<linearGradient id="paint2_linear" x1="57.3104" y1="61.468" x2="59" y2="69.5001" gradientUnits="userSpaceOnUse">
<stop offset="0.295043" stop-color="#B57360"/>
<stop offset="0.951276" stop-color="#864735"/>
</linearGradient>
<linearGradient id="paint3_linear" x1="57.3104" y1="61.468" x2="59" y2="69.5001" gradientUnits="userSpaceOnUse">
<stop offset="0.295043" stop-color="#B57360"/>
<stop offset="0.951276" stop-color="#864735"/>
</linearGradient>
<linearGradient id="paint4_linear" x1="43.8576" y1="21.3192" x2="51.6221" y2="50.297" gradientUnits="userSpaceOnUse">
<stop stop-color="#FFBF36"/>
<stop offset="0.305404" stop-color="#FFCC65"/>
<stop offset="0.548133" stop-color="#FEB932"/>
<stop offset="0.767845" stop-color="#F8A449"/>
<stop offset="1" stop-color="#F58E2E"/>
</linearGradient>
<linearGradient id="paint5_linear" x1="43.4902" y1="19.5852" x2="49.8413" y2="43.2881" gradientUnits="userSpaceOnUse">
<stop stop-color="#FFCC4D"/>
<stop offset="0.699488" stop-color="#FFAD4D"/>
<stop offset="0.983791" stop-color="#EC9341"/>
</linearGradient>
<linearGradient id="paint6_linear" x1="52.3104" y1="46.468" x2="54" y2="54.5001" gradientUnits="userSpaceOnUse">
<stop offset="0.295043" stop-color="#B57360"/>
<stop offset="0.951276" stop-color="#864735"/>
</linearGradient>
<linearGradient id="paint7_linear" x1="52.3104" y1="46.468" x2="54" y2="54.5001" gradientUnits="userSpaceOnUse">
<stop offset="0.295043" stop-color="#B57360"/>
<stop offset="0.951276" stop-color="#864735"/>
</linearGradient>
</defs>
</svg>
