<svg width="98" height="102" viewBox="0 0 98 102" fill="none" xmlns="http://www.w3.org/2000/svg">
<g opacity="0.4" filter="url(#filter0_f)">
<path d="M43.3559 43.6535L54.947 46.7593C54.947 46.7593 58.2237 53.849 57.1884 57.7127C56.1531 61.5764 43.7162 65.4908 43.7162 65.4908C43.7162 65.4908 34.9028 55.8823 35.9381 52.0186C36.9733 48.1549 43.3559 43.6535 43.3559 43.6535Z" fill="url(#paint0_linear)"/>
<path d="M50.8594 32.4954C51.9119 32.0485 53.3376 32.4306 54.0257 33.3438L65.2716 48.2586C65.9597 49.1718 65.6615 50.2846 64.609 50.7314L47.4136 58.0244C46.3601 58.4709 44.9353 58.0892 44.2472 57.176L33.002 42.2623C32.313 41.3489 32.6111 40.2361 33.6646 39.7896L50.8594 32.4954Z" fill="#292F33"/>
<path d="M50.8594 32.4954C51.9119 32.0485 53.3376 32.4306 54.0257 33.3438L65.2716 48.2586C65.9597 49.1718 65.6615 50.2846 64.609 50.7314L47.4136 58.0244C46.361 58.4712 44.9353 58.0892 44.2472 57.176L33.001 42.2621C32.313 41.3489 32.6111 40.2361 33.6636 39.7893L50.8594 32.4954Z" fill="url(#paint1_linear)"/>
<path d="M55.9637 58.4198C55.9637 58.4198 57.3779 60.8693 57.1191 61.8352L55.5661 67.6307C55.5661 67.6307 55.0485 69.5626 53.1166 69.045C51.1848 68.5273 51.7024 66.5955 51.7024 66.5955L53.2553 60.7999C53.5142 59.834 55.9637 58.4198 55.9637 58.4198Z" fill="url(#paint2_linear)"/>
<path d="M54.9282 62.2835C53.3278 61.8546 52.3781 60.2096 52.8069 58.6092C53.2357 57.0088 54.8807 56.0591 56.4811 56.4879C58.0815 56.9167 59.0313 58.5618 58.6024 60.1622C58.1736 61.7625 56.5286 62.7123 54.9282 62.2835Z" fill="#FDD888"/>
<path d="M55.445 60.3514C55.9782 60.4942 56.5266 60.1784 56.6697 59.6443L57.6942 55.8211C57.8988 55.2196 58.0405 53.8061 57.1685 52.6945L50.5011 42.719C50.1938 42.2588 49.5724 42.1357 49.1141 42.4436C48.6551 42.7503 48.5321 43.3716 48.8388 43.8306L55.5497 53.8675C56.0151 54.4643 55.7788 55.2458 55.7767 55.2535L54.7369 59.1264C54.5938 59.6605 54.9108 60.2082 55.445 60.3514Z" fill="#FCAB40"/>
<path d="M48.6338 47.1382C47.0334 46.7094 46.0836 45.0644 46.5125 43.464C46.9413 41.8636 48.5863 40.9139 50.1867 41.3427C51.7871 41.7715 52.7368 43.4165 52.308 45.0169C51.8792 46.6173 50.2342 47.5671 48.6338 47.1382Z" fill="#31373D"/>
</g>
<path d="M46.3559 28.6535L57.947 31.7593C57.947 31.7593 61.2237 38.849 60.1884 42.7127C59.1531 46.5764 46.7162 50.4909 46.7162 50.4909C46.7162 50.4909 37.9028 40.8824 38.9381 37.0187C39.9733 33.155 46.3559 28.6535 46.3559 28.6535Z" fill="url(#paint3_linear)"/>
<path d="M53.8594 17.4954C54.9119 17.0486 56.3376 17.4306 57.0257 18.3438L68.2716 33.2587C68.9597 34.1719 68.6615 35.2846 67.609 35.7314L50.4136 43.0244C49.3601 43.471 47.9353 43.0892 47.2472 42.176L36.002 27.2623C35.313 26.3489 35.6111 25.2361 36.6646 24.7896L53.8594 17.4954Z" fill="#292F33"/>
<path d="M53.8594 17.4954C54.9119 17.0486 56.3376 17.4306 57.0257 18.3438L68.2716 33.2587C68.9597 34.1719 68.6615 35.2846 67.609 35.7314L50.4136 43.0244C49.361 43.4712 47.9353 43.0892 47.2472 42.176L36.001 27.2621C35.313 26.3489 35.6111 25.2361 36.6636 24.7893L53.8594 17.4954Z" fill="url(#paint4_linear)"/>
<path d="M58.9637 43.4198C58.9637 43.4198 60.3779 45.8693 60.1191 46.8352L58.5661 52.6308C58.5661 52.6308 58.0485 54.5626 56.1166 54.045C54.1848 53.5273 54.7024 51.5955 54.7024 51.5955L56.2553 45.7999C56.5142 44.834 58.9637 43.4198 58.9637 43.4198Z" fill="url(#paint5_linear)"/>
<path d="M57.9282 47.2835C56.3278 46.8547 55.3781 45.2097 55.8069 43.6093C56.2357 42.0089 57.8807 41.0591 59.4811 41.4879C61.0815 41.9168 62.0313 43.5618 61.6024 45.1622C61.1736 46.7626 59.5286 47.7123 57.9282 47.2835Z" fill="#FDD888"/>
<path d="M58.445 45.3514C58.9782 45.4942 59.5266 45.1784 59.6697 44.6443L60.6942 40.8211C60.8988 40.2196 61.0405 38.8061 60.1685 37.6945L53.5011 27.719C53.1938 27.2588 52.5724 27.1358 52.1141 27.4436C51.6551 27.7503 51.5321 28.3716 51.8388 28.8306L58.5497 38.8675C59.0151 39.4643 58.7788 40.2458 58.7767 40.2535L57.7369 44.1264C57.5938 44.6605 57.9108 45.2082 58.445 45.3514Z" fill="#FCAB40"/>
<path d="M51.6338 32.1383C50.0334 31.7094 49.0836 30.0644 49.5125 28.464C49.9413 26.8636 51.5863 25.9139 53.1867 26.3427C54.7871 26.7715 55.7368 28.4165 55.308 30.0169C54.8792 31.6173 53.2342 32.5671 51.6338 32.1383Z" fill="#31373D"/>
<defs>
<filter id="filter0_f" x="0.630371" y="0.308395" width="97.0119" height="100.825" filterUnits="userSpaceOnUse" color-interpolation-filters="sRGB">
<feFlood flood-opacity="0" result="BackgroundImageFix"/>
<feBlend mode="normal" in="SourceGraphic" in2="BackgroundImageFix" result="shape"/>
<feGaussianBlur stdDeviation="16" result="effect1_foregroundBlur"/>
</filter>
<linearGradient id="paint0_linear" x1="49.1514" y1="45.2064" x2="43.7162" y2="65.4908" gradientUnits="userSpaceOnUse">
<stop offset="0.480344" stop-color="#31373D"/>
<stop offset="1" stop-color="#212426"/>
</linearGradient>
<linearGradient id="paint1_linear" x1="52.5797" y1="32.4097" x2="45.6933" y2="58.1101" gradientUnits="userSpaceOnUse">
<stop offset="0.339537" stop-color="#394146"/>
<stop offset="1" stop-color="#21282D"/>
</linearGradient>
<linearGradient id="paint2_linear" x1="55.9637" y1="58.4198" x2="53.1166" y2="69.045" gradientUnits="userSpaceOnUse">
<stop offset="0.3072" stop-color="#FFBE70"/>
<stop offset="1" stop-color="#FCAB40"/>
</linearGradient>
<linearGradient id="paint3_linear" x1="52.1514" y1="30.2064" x2="46.7162" y2="50.4909" gradientUnits="userSpaceOnUse">
<stop offset="0.480344" stop-color="#31373D"/>
<stop offset="1" stop-color="#212426"/>
</linearGradient>
<linearGradient id="paint4_linear" x1="55.5797" y1="17.4097" x2="48.6933" y2="43.1101" gradientUnits="userSpaceOnUse">
<stop offset="0.339537" stop-color="#394146"/>
<stop offset="1" stop-color="#21282D"/>
</linearGradient>
<linearGradient id="paint5_linear" x1="58.9637" y1="43.4198" x2="56.1166" y2="54.045" gradientUnits="userSpaceOnUse">
<stop offset="0.3072" stop-color="#FFBE70"/>
<stop offset="1" stop-color="#FCAB40"/>
</linearGradient>
</defs>
</svg>
