<svg width="98" height="101" viewBox="0 0 98 101" fill="none" xmlns="http://www.w3.org/2000/svg">
<g opacity="0.4" filter="url(#filter0_f)">
<path d="M52.6562 38.8232L56.52 39.8585L52.12 56.2793L48.2563 55.244L52.6562 38.8232Z" fill="#99AAB5"/>
<path d="M42.849 52.242C42.6347 53.0418 41.8116 53.517 41.0119 53.3027L38.1141 52.5262C37.3143 52.3119 36.8391 51.4889 37.0534 50.6891C37.2677 49.8893 38.0908 49.4142 38.8905 49.6285L41.7883 50.4049C42.5881 50.6192 43.0633 51.4423 42.849 52.242Z" fill="#DA2F47"/>
<path d="M63.8313 66.6642C63.5455 67.7305 62.4482 68.3641 61.3818 68.0784L34.3358 60.8314C33.2695 60.5457 32.6359 59.4483 32.9216 58.3819L34.4745 52.5864C34.7603 51.52 35.8577 50.8864 36.924 51.1722L63.97 58.4191C65.0363 58.7048 65.6699 59.8022 65.3842 60.8686L63.8313 66.6642Z" fill="url(#paint0_linear)"/>
<path d="M40.2608 61.9015C40.0465 62.7012 39.2245 63.1767 38.4237 62.9621L35.5259 62.1857C34.7252 61.9711 34.251 61.1483 34.4653 60.3485C34.6796 59.5488 35.5017 59.0733 36.3024 59.2879L39.2002 60.0643C40.0009 60.2789 40.4751 61.1017 40.2608 61.9015ZM61.5112 67.5955C61.2969 68.3953 60.4739 68.8704 59.6741 68.6561L56.7763 67.8797C55.9765 67.6654 55.5014 66.8424 55.7157 66.0426C55.93 65.2428 56.753 64.7676 57.5528 64.9819L60.4505 65.7584C61.2503 65.9727 61.7255 66.7957 61.5112 67.5955Z" fill="#252A30"/>
<path d="M53.8118 42.2385C56.4791 42.9532 59.2208 41.3703 59.9355 38.703C60.6502 36.0356 59.0673 33.294 56.3999 32.5793C53.7326 31.8645 50.9909 33.4475 50.2762 36.1148C49.5615 38.7821 51.1444 41.5238 53.8118 42.2385Z" fill="url(#paint1_linear)"/>
<path d="M56.9498 57.5732C56.664 58.6396 55.5666 59.2731 54.5003 58.9874L44.841 56.3992C43.7746 56.1135 43.1411 55.0161 43.4268 53.9497L43.6856 52.9838C43.9713 51.9174 49.0018 48.1966 50.0682 48.4823L53.9319 49.5176C54.9982 49.8033 57.4943 55.5409 57.2086 56.6073L56.9498 57.5732Z" fill="#31373D"/>
<path d="M64.1594 61.5757C64.0163 62.1099 63.4688 62.4259 62.9346 62.2828L35.8887 55.0359C35.3555 54.893 35.0385 54.3453 35.1816 53.8111C35.3247 53.277 35.8732 52.9612 36.4064 53.104L63.4523 60.351C63.9864 60.4941 64.3025 61.0416 64.1594 61.5757Z" fill="#66757F"/>
</g>
<path d="M57.6562 18.8232L61.52 19.8585L57.12 36.2793L53.2563 35.244L57.6562 18.8232Z" fill="#99AAB5"/>
<path d="M47.849 32.242C47.6347 33.0418 46.8116 33.517 46.0119 33.3027L43.1141 32.5262C42.3143 32.3119 41.8391 31.4889 42.0534 30.6891C42.2677 29.8893 43.0908 29.4142 43.8905 29.6285L46.7883 30.4049C47.5881 30.6192 48.0633 31.4423 47.849 32.242Z" fill="#DA2F47"/>
<path d="M68.8313 46.6642C68.5455 47.7305 67.4482 48.3641 66.3818 48.0784L39.3358 40.8314C38.2695 40.5457 37.6359 39.4483 37.9216 38.3819L39.4745 32.5864C39.7603 31.52 40.8577 30.8864 41.924 31.1722L68.97 38.4191C70.0363 38.7048 70.6699 39.8022 70.3842 40.8686L68.8313 46.6642Z" fill="url(#paint2_linear)"/>
<path d="M45.2608 41.9015C45.0465 42.7012 44.2245 43.1767 43.4237 42.9621L40.5259 42.1857C39.7252 41.9711 39.251 41.1483 39.4653 40.3485C39.6796 39.5488 40.5017 39.0733 41.3024 39.2879L44.2002 40.0643C45.0009 40.2789 45.4751 41.1017 45.2608 41.9015ZM66.5112 47.5955C66.2969 48.3953 65.4739 48.8704 64.6741 48.6561L61.7763 47.8797C60.9765 47.6654 60.5014 46.8424 60.7157 46.0426C60.93 45.2428 61.753 44.7676 62.5528 44.9819L65.4505 45.7584C66.2503 45.9727 66.7255 46.7957 66.5112 47.5955Z" fill="#252A30"/>
<path d="M58.8118 22.2385C61.4791 22.9532 64.2208 21.3703 64.9355 18.703C65.6502 16.0356 64.0673 13.294 61.3999 12.5793C58.7326 11.8645 55.9909 13.4475 55.2762 16.1148C54.5615 18.7821 56.1444 21.5238 58.8118 22.2385Z" fill="url(#paint3_linear)"/>
<path d="M61.9498 37.5732C61.664 38.6396 60.5666 39.2731 59.5003 38.9874L49.841 36.3992C48.7746 36.1135 48.1411 35.0161 48.4268 33.9497L48.6856 32.9838C48.9713 31.9174 54.0018 28.1966 55.0682 28.4823L58.9319 29.5176C59.9982 29.8033 62.4943 35.5409 62.2086 36.6073L61.9498 37.5732Z" fill="#31373D"/>
<path d="M69.1594 41.5757C69.0163 42.1099 68.4688 42.4259 67.9346 42.2828L40.8887 35.0359C40.3555 34.893 40.0385 34.3453 40.1816 33.8111C40.3247 33.277 40.8732 32.9612 41.4064 33.104L68.4523 40.351C68.9864 40.4941 69.3025 41.0416 69.1594 41.5757Z" fill="#66757F"/>
<defs>
<filter id="filter0_f" x="0.853027" y="0.407715" width="96.5997" height="100.3" filterUnits="userSpaceOnUse" color-interpolation-filters="sRGB">
<feFlood flood-opacity="0" result="BackgroundImageFix"/>
<feBlend mode="normal" in="SourceGraphic" in2="BackgroundImageFix" result="shape"/>
<feGaussianBlur stdDeviation="16" result="effect1_foregroundBlur"/>
</filter>
<linearGradient id="paint0_linear" x1="50.447" y1="54.7956" x2="47.8588" y2="64.4549" gradientUnits="userSpaceOnUse">
<stop stop-color="#31373D"/>
<stop offset="1" stop-color="#23282E"/>
</linearGradient>
<linearGradient id="paint1_linear" x1="56.3999" y1="32.5793" x2="53.8118" y2="42.2385" gradientUnits="userSpaceOnUse">
<stop offset="0.230401" stop-color="#DA2F47"/>
<stop offset="1" stop-color="#9D2233"/>
</linearGradient>
<linearGradient id="paint2_linear" x1="55.447" y1="34.7956" x2="52.8588" y2="44.4549" gradientUnits="userSpaceOnUse">
<stop stop-color="#31373D"/>
<stop offset="1" stop-color="#23282E"/>
</linearGradient>
<linearGradient id="paint3_linear" x1="61.3999" y1="12.5793" x2="58.8118" y2="22.2385" gradientUnits="userSpaceOnUse">
<stop offset="0.230401" stop-color="#DA2F47"/>
<stop offset="1" stop-color="#9D2233"/>
</linearGradient>
</defs>
</svg>
