<svg width="108" height="108" viewBox="0 0 108 108" fill="none" xmlns="http://www.w3.org/2000/svg">
<g opacity="0.4" filter="url(#filter0_f)">
<path d="M40.2822 72.2271C40.8539 74.3608 43.0474 75.6273 45.1812 75.0555L72.2271 67.8086C74.3608 67.2369 75.6273 65.0434 75.0555 62.9096L67.8086 35.8637C67.2369 33.73 65.0433 32.4635 62.9096 33.0353L35.8637 40.2822C33.73 40.8539 32.4635 43.0475 33.0353 45.1812L40.2822 72.2271Z" fill="url(#paint0_linear)"/>
<path d="M38.5906 58.1865C40.8778 66.7224 49.6506 71.7874 58.1865 69.5002C66.7214 67.2133 71.7874 58.4402 69.5002 49.9043C67.2133 41.3694 58.4392 36.3036 49.9043 38.5906C41.3684 40.8778 36.3037 49.6516 38.5906 58.1865ZM53.3552 51.4693C54.778 51.088 56.2403 51.9323 56.6215 53.3551C57.0028 54.7779 56.1585 56.2403 54.7357 56.6215C53.3129 57.0027 51.8505 56.1585 51.4693 54.7357C51.0881 53.3128 51.9323 51.8505 53.3552 51.4693Z" fill="url(#paint1_linear)"/>
<path d="M57.9713 52.5121C57.6118 51.5917 56.9749 50.8451 56.1641 50.377L61.1567 41.7281C63.883 43.3022 66.0848 45.7777 67.2895 48.8713L57.9713 52.5121ZM50.1195 55.5788C50.4787 56.4981 51.1165 57.2445 51.9276 57.7135L46.934 66.3627C44.2077 64.7886 42.006 62.3131 40.8013 59.2195L50.1195 55.5788Z" fill="#FFAC33"/>
<path d="M54.6766 58.2131L56.1764 68.1029C52.8992 68.6031 49.6576 67.9343 46.9348 66.3614L51.9284 57.7123C52.7382 58.1807 53.7028 58.3612 54.6766 58.2131ZM53.3867 49.8831L51.823 39.998C55.1322 39.4705 58.4085 40.1414 61.1578 41.7279L56.1642 50.377C55.3461 49.9047 54.3708 49.727 53.3867 49.8831Z" fill="#FFE8B6"/>
<path d="M37.4352 61.6019C37.7209 62.6683 38.8183 63.3019 39.8847 63.0162L50.5099 60.1691C51.5762 59.8834 52.2098 58.786 51.9241 57.7197L50.3712 51.9241C50.0854 50.8577 48.988 50.2242 47.9217 50.5099L37.2965 53.3569C36.2301 53.6426 35.5965 54.74 35.8823 55.8064L37.4352 61.6019Z" fill="#F5F8FA"/>
</g>
<path d="M35.2822 52.2271C35.8539 54.3608 38.0474 55.6273 40.1812 55.0555L67.2271 47.8086C69.3608 47.2369 70.6273 45.0434 70.0555 42.9096L62.8086 15.8637C62.2369 13.73 60.0433 12.4635 57.9096 13.0353L30.8637 20.2822C28.73 20.8539 27.4635 23.0475 28.0353 25.1812L35.2822 52.2271Z" fill="url(#paint2_linear)"/>
<path d="M33.5906 38.1865C35.8778 46.7224 44.6506 51.7874 53.1865 49.5002C61.7214 47.2133 66.7874 38.4402 64.5002 29.9043C62.2133 21.3694 53.4392 16.3036 44.9043 18.5906C36.3684 20.8778 31.3037 29.6516 33.5906 38.1865ZM48.3552 31.4693C49.778 31.088 51.2403 31.9323 51.6215 33.3551C52.0028 34.7779 51.1585 36.2403 49.7357 36.6215C48.3129 37.0027 46.8505 36.1585 46.4693 34.7357C46.0881 33.3128 46.9323 31.8505 48.3552 31.4693Z" fill="url(#paint3_linear)"/>
<path d="M52.9713 32.5121C52.6118 31.5917 51.9749 30.8451 51.1641 30.377L56.1567 21.7281C58.883 23.3022 61.0848 25.7777 62.2895 28.8713L52.9713 32.5121ZM45.1195 35.5788C45.4787 36.4981 46.1165 37.2445 46.9276 37.7135L41.934 46.3627C39.2077 44.7886 37.006 42.3131 35.8013 39.2195L45.1195 35.5788Z" fill="#FFAC33"/>
<path d="M49.6766 38.2131L51.1764 48.1029C47.8992 48.6031 44.6576 47.9343 41.9348 46.3614L46.9284 37.7123C47.7382 38.1807 48.7028 38.3612 49.6766 38.2131ZM48.3867 29.8831L46.823 19.998C50.1322 19.4705 53.4085 20.1414 56.1578 21.7279L51.1642 30.377C50.3461 29.9047 49.3708 29.727 48.3867 29.8831Z" fill="#FFE8B6"/>
<path d="M32.4352 41.6019C32.7209 42.6683 33.8183 43.3019 34.8847 43.0162L45.5099 40.1691C46.5762 39.8834 47.2098 38.786 46.9241 37.7197L45.3712 31.9241C45.0854 30.8577 43.988 30.2242 42.9217 30.5099L32.2965 33.3569C31.2301 33.6426 30.5965 34.74 30.8823 35.8064L32.4352 41.6019Z" fill="#F5F8FA"/>
<defs>
<filter id="filter0_f" x="0.897949" y="0.89801" width="106.295" height="106.295" filterUnits="userSpaceOnUse" color-interpolation-filters="sRGB">
<feFlood flood-opacity="0" result="BackgroundImageFix"/>
<feBlend mode="normal" in="SourceGraphic" in2="BackgroundImageFix" result="shape"/>
<feGaussianBlur stdDeviation="16" result="effect1_foregroundBlur"/>
</filter>
<linearGradient id="paint0_linear" x1="49.3867" y1="36.6587" x2="58.7041" y2="71.4321" gradientUnits="userSpaceOnUse">
<stop stop-color="#383F44"/>
<stop offset="1" stop-color="#1F2426"/>
</linearGradient>
<linearGradient id="paint1_linear" x1="49.9043" y1="38.5906" x2="58.1865" y2="69.5002" gradientUnits="userSpaceOnUse">
<stop stop-color="#FFDF97"/>
<stop offset="1" stop-color="#FFC683"/>
</linearGradient>
<linearGradient id="paint2_linear" x1="44.3867" y1="16.6587" x2="53.7041" y2="51.4321" gradientUnits="userSpaceOnUse">
<stop stop-color="#383F44"/>
<stop offset="1" stop-color="#1F2426"/>
</linearGradient>
<linearGradient id="paint3_linear" x1="44.9043" y1="18.5906" x2="53.1865" y2="49.5002" gradientUnits="userSpaceOnUse">
<stop stop-color="#FFDF97"/>
<stop offset="1" stop-color="#FFC683"/>
</linearGradient>
</defs>
</svg>
